<?xml version="1.0" encoding="utf-8"?>
<!-- Generator: Adobe Illustrator 19.2.1, SVG Export Plug-In . SVG Version: 6.00 Build 0)  -->
<svg version="1.1" xmlns="http://www.w3.org/2000/svg" xmlns:xlink="http://www.w3.org/1999/xlink" x="0px" y="0px"
	 viewBox="0 0 1951 385.2" style="enable-background:new 0 0 1951 385.2;" xml:space="preserve">
<style type="text/css">
	.st0{fill:#242B40;}
	.st1{fill:#FFFFFF;}
</style>
<g id="Capa_1">
</g>
<g id="Capa_2">
</g>
<g id="Capa_3">
</g>
<g id="Capa_4">
	<g>
		<g>
			<path class="st1" d="M584.9,170.6c-18.2-10.7-41.8-15.6-64.7-19.4c-47.8-8.3-63.2-17.6-63.2-38.2c0-34.7,36.4-39.9,58-39.9
				c14.5,0,49,3.2,56,32.5l1.3,5.4l34.3-12l-1.4-4.6c-10.4-34.1-46.7-57-90.3-57c-31.7,0-57.2,8.9-73.9,25.7
				c-13,13.1-20,30.8-19.8,49.9c0.4,52.1,48.1,65.1,92.8,73.3c49.3,9,65.7,15.8,65.7,38.5c0,33-39.6,41.7-60.5,41.7
				c-35.4,0-61-12.6-70.2-34.7l-1.8-4.3l-33.8,11.8l1.8,4.8c5.9,16,18.3,30.3,34.9,40.5c18.9,11.5,43,17.6,69.9,17.6
				c24.9,0,48.1-6.8,65.4-19c19.9-14.1,30.4-34.3,30.4-58.3C615.9,200.7,605.8,182.9,584.9,170.6z"/>
			<path class="st1" d="M655.5,56.1c-10.6,0-19.2,8.8-19.2,19.6c0,10.6,8.6,19.3,19.2,19.3c10.8,0,19.6-8.6,19.6-19.3
				C675.1,64.7,666.5,56.1,655.5,56.1z"/>
			<rect x="637.7" y="117.7" class="st1" width="36" height="181.7"/>
			<path class="st1" d="M784.9,115.2c-17.1,0-32.4,5.4-44.9,15.6v-13.1h-35.6v181.7H740v-97.6c0-32.4,14.8-50.9,40.6-50.9
				c26.1,0,38.8,16,38.8,48.8v99.7H855v-99.7c0-30.3-7.2-52.8-21.4-66.9C821.9,121.1,805.5,115.2,784.9,115.2z"/>
			<path class="st1" d="M958.4,115.2c-24.6,0-47,9.8-62.8,27.6c-15.3,17.2-23.8,40.6-23.8,66.1c0,25.2,8.8,48.5,24.9,65.7
				c16.4,17.6,39.1,27.3,63.8,27.3c31.8,0,58.2-14.9,74.1-42l2.7-4.6l-31.3-15.4l-2.4,3.7c-10,15.5-24.5,23.3-43.2,23.3
				c-26.4,0-46-17.1-51.2-44.1h131.3v-5c0-1.3,0.1-2.7,0.2-4.2c0.1-1.6,0.2-3.2,0.2-4.8c0-25.7-7.6-49.2-21.5-65.9
				C1004.5,124.8,983.4,115.2,958.4,115.2z M911,187.1c6.7-23,24.5-37,47.4-37c29.6,0,40.8,21.1,45,37H911z"/>
			<path class="st1" d="M1141.9,115.2c-16.8,0-32.3,5.4-44.5,15.5v-13h-36v181.7h36v-97.6c0-32.4,14.8-50.9,40.6-50.9
				c4,0,7.6,0.3,10.7,1l5,1l7-36.5l-6.5-0.5C1150.2,115.5,1146,115.2,1141.9,115.2z"/>
			<rect x="1172.9" y="22.3" class="st1" width="35.7" height="277.1"/>
			<path class="st1" d="M1314.7,115.2c-50,0-87.6,40.3-87.6,93.7c0,25.4,8.6,48.8,24.3,66c16.1,17.6,38.6,27.4,63.3,27.4
				c50.6,0,88.7-40.1,88.7-93.3C1403.4,155.5,1365.3,115.2,1314.7,115.2z M1367.5,208.9c0,34.2-21.7,58-52.7,58
				c-30.9,0-51.6-23.3-51.6-58c0-34.6,21.2-58.7,51.6-58.7C1345.8,150.1,1367.5,174.3,1367.5,208.9z"/>
			<path class="st1" d="M1553.4,133.4c-13.6-11.9-31.1-18.2-51.3-18.2c-24.7,0-46.9,9.8-62.5,27.6c-14.9,17-23.1,40.5-23.1,66
				c0,25.4,8.2,48.7,23.1,65.6c15.5,17.7,37.7,27.4,62.4,27.4c20.2,0,37.7-6.2,51.3-18.2v1.4c0,39.1-17.5,59.8-50.5,59.8
				c-19.2,0-37.3-9.1-46-23.3l-2.6-4.2l-29.9,18l2.6,4.3c14.9,24.4,44.6,40.2,75.9,40.2c54.2,0,86.5-34.6,86.5-92.6V117.7h-36V133.4
				z M1552.4,208.9c0,28.9-15.5,58-50.2,58c-30.1,0-49.5-22.8-49.5-58c0-27.1,13-58.7,49.5-58.7
				C1536.9,150.1,1552.4,179.6,1552.4,208.9z"/>
			<path class="st1" d="M1638,56.1c-10.6,0-19.3,8.8-19.3,19.6c0,10.6,8.6,19.3,19.3,19.3c10.8,0,19.6-8.6,19.6-19.3
				C1657.6,64.7,1648.9,56.1,1638,56.1z"/>
			<rect x="1620.1" y="117.7" class="st1" width="36" height="181.7"/>
			<path class="st1" d="M1809.4,243.6c-9.7,15.1-25.3,23.3-43.9,23.3c-30.9,0-51.6-23.3-51.6-58c0-34.6,21.1-58.7,51.3-58.7
				c18.5,0,34.2,8.4,44.3,23.8l2.4,3.6l31.3-14.9l-2.8-4.7c-16-27.1-43.4-42.7-75.2-42.7c-24.7,0-47.1,9.8-63.1,27.6
				c-15.6,17.2-24.1,40.7-24.1,66.1c0,25.3,8.6,48.6,24.2,65.7c16.1,17.6,38.6,27.3,63.4,27.3c31.8,0,59.1-15.3,74.8-42l2.7-4.6
				l-31.2-15.4L1809.4,243.6z"/>
			<path class="st1" d="M1923.4,41.4c0,19.9-16.2,36.1-36.1,36.1c-19.9,0-36.1-16.2-36.1-36.1s16.2-36.1,36.1-36.1
				C1907.2,5.3,1923.4,21.5,1923.4,41.4z M1916.8,41.4c0-16.4-13-29.7-29.4-29.7c-16.4,0-29.5,13.3-29.5,29.7s13.1,29.7,29.5,29.7
				C1903.8,71.1,1916.8,57.8,1916.8,41.4z M1895.6,45l8.1,14.2h-6.4l-7.3-13c-0.2,0-0.5,0-0.7,0h-9.2v13h-5.6V22.3h14.8
				c7.2,0,13,4.5,13,11.9C1902.4,39.4,1899.8,43.2,1895.6,45z M1880.1,40.7h9.2c4.4,0,7.3-2.1,7.3-6.5c0-4.3-3-6.4-7.3-6.4h-9.2
				V40.7z"/>
		</g>
		<path class="st1" d="M191.3,54.3l9,48.5c49,10.5,98.1,18.6,147.1-2.8c0-15.5,0-31,0-46.5C295.3,76.2,243.3,65.7,191.3,54.3z"/>
		<path class="st1" d="M143.5,91.2l-8.9-47.9C98.9,38,63.2,37.9,27.5,53.5c0,15.5,0,31,0,46.5C66.2,83.2,104.8,84.6,143.5,91.2z"/>
		<path class="st1" d="M211.6,149.7c-18.9-3.8-37.9-8.4-56.8-12c-42.4-8.1-84.8-11.7-127.3,6.8c0,15.5,0,31,0,46.5
			c45.4-19.8,90.8-14.3,136.2-5.1c18.9,3.9,37.9,8.4,56.8,12c42.3,8,84.5,11.5,126.8-6.9c0-15.5,0-31,0-46.5
			C302.1,164.3,256.9,158.9,211.6,149.7z"/>
		<path class="st1" d="M231.9,244.6l8.9,47.9c35.5,5.2,71.1,5.2,106.6-10.3c0-15.5,0-31,0-46.5C308.9,252.4,270.4,251,231.9,244.6z"
			/>
		<path class="st1" d="M27.5,235.6c0,15.5,0,31,0,46.5c52.2-22.8,104.4-12.1,156.6-0.7l-9-48.5C125.9,222.4,76.7,214.2,27.5,235.6z"
			/>
	</g>
</g>
</svg>
